<svg width="119" height="108" viewBox="0 0 119 108" fill="none" xmlns="http://www.w3.org/2000/svg">
<circle cx="34.8891" cy="61.475" r="1.475" fill="#C9FCBE" fill-opacity="0.75"/>
<circle cx="23.8891" cy="76.475" r="2.475" fill="#755FFE" fill-opacity="0.85"/>
<circle cx="116.389" cy="20.975" r="1.975" fill="#F54721"/>
<circle cx="93.8891" cy="105.475" r="2.475" fill="#9AF5FC" fill-opacity="0.65"/>
<circle cx="65.3891" cy="72.975" r="1.975" fill="#9DED1A" fill-opacity="0.9"/>
<path d="M15.9324 45.6034L17.378 39.8054L21.6765 43.9563L15.9324 45.6034Z" fill="#BA3E03" fill-opacity="0.9"/>
<path d="M108.215 89.7076L106.091 86.989L107.384 83.7902L110.8 83.31L112.924 86.0287L111.632 89.2275L108.215 89.7076Z" fill="#FC9E1C" fill-opacity="0.65"/>
<path d="M57.6248 35.0396L57.7349 32.9895L55.6895 32.8132L57.5199 31.8834L56.6499 30.0239L58.3703 31.1442L59.5457 29.461L59.4357 31.511L61.4811 31.6874L59.6507 32.6171L60.5206 34.4767L58.8003 33.3564L57.6248 35.0396Z" fill="#BA3E03" fill-opacity="0.6"/>
<path d="M44.5382 42.7186L43.1365 44.7967L44.6797 46.7719L42.2702 46.081L40.8686 48.159L40.7811 45.654L38.3716 44.9631L40.727 44.1058L40.6395 41.6007L42.1827 43.5759L44.5382 42.7186Z" fill="#9AF5FC"/>
<path d="M90.5928 36.8637L87.5509 37.3078L85.9079 39.9061L85.4638 36.8642L82.8654 35.2212L85.9074 34.7771L87.5504 32.1787L87.9945 35.2207L90.5928 36.8637Z" fill="#480CA7" fill-opacity="0.85"/>
<path d="M86.9158 3.43674L88.5577 4.81443L90.3753 3.67865L89.5724 5.66588L91.2143 7.04357L89.0762 6.89406L88.2733 8.88129L87.7548 6.80166L85.6167 6.65215L87.4343 5.51637L86.9158 3.43674Z" fill="#755FFE" fill-opacity="0.9"/>
<path d="M4.3237 15.6166L2.96182 15.2261L2.16958 16.4007L2.12014 14.9848L0.758262 14.5943L2.08958 14.1097L2.04013 12.6938L2.91238 13.8102L4.2437 13.3257L3.45145 14.5002L4.3237 15.6166Z" fill="#FF21FB" fill-opacity="0.65"/>
<path d="M89.9773 2.50174L88.5996 4.14361L89.7354 5.96123L87.7482 5.15833L86.3705 6.8002L86.52 4.66212L84.5328 3.85922L86.6124 3.34071L86.7619 1.20263L87.8977 3.02025L89.9773 2.50174Z" fill="#480CA7" fill-opacity="0.6"/>
<path d="M86.744 45.4261L86.0436 46.5885L87.1826 47.3262L85.8258 47.3008L85.7565 48.6561L85.1001 47.4683L83.8917 48.0859L84.5921 46.9236L83.453 46.1859L84.8098 46.2113L84.8792 44.856L85.5356 46.0437L86.744 45.4261Z" fill="#F62584"/>
</svg>
